<?xml version="1.0" encoding="UTF-8"?>
<svg version="1.1" xmlns="http://www.w3.org/2000/svg" width="1711" height="1054">
<path d="M0 0 C107.91 0 215.82 0 327 0 C327 70.95 327 141.9 327 215 C219.09 215 111.18 215 0 215 C0 144.05 0 73.1 0 0 Z " fill="#53A3A1" transform="translate(842,93)"/>
<path d="M0 0 C75.57 0 151.14 0 229 0 C229 48.84 229 97.68 229 148 C153.43 148 77.86 148 0 148 C0 99.16 0 50.32 0 0 Z " fill="#53A3A1" transform="translate(848,404)"/>
<path d="M0 0 C32.01 0 64.02 0 97 0 C97 31.68 97 63.36 97 96 C64.99 96 32.98 96 0 96 C0 64.32 0 32.64 0 0 Z " fill="#84CFD5" transform="translate(725,918)"/>
<path d="M0 0 C32.01 0 64.02 0 97 0 C97 31.68 97 63.36 97 96 C64.99 96 32.98 96 0 96 C0 64.32 0 32.64 0 0 Z " fill="#84CFD5" transform="translate(617,918)"/>
<path d="M0 0 C32.01 0 64.02 0 97 0 C97 31.68 97 63.36 97 96 C64.99 96 32.98 96 0 96 C0 64.32 0 32.64 0 0 Z " fill="#84CFD5" transform="translate(725,799)"/>
<path d="M0 0 C32.01 0 64.02 0 97 0 C97 31.68 97 63.36 97 96 C64.99 96 32.98 96 0 96 C0 64.32 0 32.64 0 0 Z " fill="#84CFD5" transform="translate(725,680)"/>
<path d="M0 0 C32.01 0 64.02 0 97 0 C97 31.68 97 63.36 97 96 C64.99 96 32.98 96 0 96 C0 64.32 0 32.64 0 0 Z " fill="#84CFD5" transform="translate(617,680)"/>
<path d="M0 0 C32.01 0 64.02 0 97 0 C97 31.68 97 63.36 97 96 C64.99 96 32.98 96 0 96 C0 64.32 0 32.64 0 0 Z " fill="#84CFD5" transform="translate(507,680)"/>
<path d="M0 0 C32.01 0 64.02 0 97 0 C97 31.68 97 63.36 97 96 C64.99 96 32.98 96 0 96 C0 64.32 0 32.64 0 0 Z " fill="#84CFD5" transform="translate(725,561)"/>
<path d="M0 0 C32.01 0 64.02 0 97 0 C97 31.68 97 63.36 97 96 C64.99 96 32.98 96 0 96 C0 64.32 0 32.64 0 0 Z " fill="#84CFD5" transform="translate(617,449)"/>
<path d="M0 0 C32.01 0 64.02 0 97 0 C97 31.68 97 63.36 97 96 C64.99 96 32.98 96 0 96 C0 64.32 0 32.64 0 0 Z " fill="#84CFD5" transform="translate(507,449)"/>
<path d="M0 0 C32.01 0 64.02 0 97 0 C97 31.68 97 63.36 97 96 C64.99 96 32.98 96 0 96 C0 64.32 0 32.64 0 0 Z " fill="#84CFD5" transform="translate(617,331)"/>
<path d="M0 0 C32.01 0 64.02 0 97 0 C97 31.68 97 63.36 97 96 C64.99 96 32.98 96 0 96 C0 64.32 0 32.64 0 0 Z " fill="#84CFD5" transform="translate(725,212)"/>
<path d="M0 0 C32.01 0 64.02 0 97 0 C97 31.68 97 63.36 97 96 C64.99 96 32.98 96 0 96 C0 64.32 0 32.64 0 0 Z " fill="#84CFD5" transform="translate(507,212)"/>
<path d="M0 0 C32.01 0 64.02 0 97 0 C97 31.68 97 63.36 97 96 C64.99 96 32.98 96 0 96 C0 64.32 0 32.64 0 0 Z " fill="#84CFD5" transform="translate(725,93)"/>
<path d="M0 0 C32.01 0 64.02 0 97 0 C97 31.68 97 63.36 97 96 C64.99 96 32.98 96 0 96 C0 64.32 0 32.64 0 0 Z " fill="#84CFD5" transform="translate(617,93)"/>
</svg>
